<svg width="296" height="49" viewBox="0 0 296 49" fill="none" xmlns="http://www.w3.org/2000/svg">
<path fill-rule="evenodd" clip-rule="evenodd" d="M0 48.7634V19.3825L26.4428 0.135742L38.2841 8.7583L32.6616 12.6786L26.4428 8.14592L6.49145 22.6582V42.3121L24.5686 42.397V48.7634H0Z" fill="#AAAAAA"/>
<path fill-rule="evenodd" clip-rule="evenodd" d="M26.426 48.8142L26.375 19.2468L26.3914 19.2807L52.8511 0.0339458L52.8169 0L79.2595 19.2468V48.7294L42.9862 48.7448V42.2613L72.7683 42.2443V22.5225L52.8169 8.01023L32.9167 22.5564L32.9002 48.8143" fill="#162A41"/>
<path d="M98.2648 48.7286H90.4316V25.8618H98.3329C101.784 25.8618 104.611 26.9249 106.813 29.051C109.015 31.1544 110.117 33.7781 110.117 36.922C110.117 40.5862 109.027 43.4699 106.847 45.5734C104.69 47.6769 101.829 48.7286 98.2648 48.7286ZM98.1626 30.1706H95.8127V44.4538H98.1967C100.308 44.4538 101.932 43.7979 103.067 42.4861C104.225 41.1742 104.804 39.3195 104.804 36.922C104.804 34.8864 104.225 33.2579 103.067 32.0365C101.909 30.7925 100.274 30.1706 98.1626 30.1706Z" fill="#162A41"/>
<path d="M119.278 48.7286H114.033V25.8618H119.278V48.7286Z" fill="#162A41"/>
<path d="M129.291 48.7286H124.046V25.8618H129.802L135.149 35.3275C135.898 36.6619 136.545 37.9172 137.09 39.0934C137.657 40.2469 138.021 41.0611 138.18 41.5361L138.452 42.2825C138.225 40.6088 138.111 38.2904 138.111 35.3275V25.8618H143.356V48.7286H137.601L132.117 39.263C131.391 38.0416 130.744 36.8429 130.176 35.6667C129.631 34.468 129.257 33.5859 129.052 33.0204L128.78 32.1722C129.12 34.2079 129.291 36.5715 129.291 39.263V48.7286Z" fill="#162A41"/>
<path d="M161.032 48.7286H155.787L157.762 25.8618H163.518L166.719 34.14C167.264 35.5197 167.73 36.7863 168.116 37.9398C168.502 39.0934 168.752 39.9076 168.865 40.3826L169.035 41.0611C169.399 39.5683 170.193 37.2613 171.419 34.14L174.655 25.8618H180.41L182.794 48.7286H177.55L176.698 39.8737L176.255 33.1901C175.665 34.8864 174.848 37.1143 173.803 39.8737L170.568 48.4911H167.469L164.267 39.8737C163.745 38.4714 163.302 37.2161 162.939 36.1078C162.576 34.9995 162.337 34.2305 162.224 33.8007L162.054 33.1901C162.054 34.7959 161.951 37.0238 161.747 39.8737L161.032 48.7286Z" fill="#162A41"/>
<path d="M190.253 48.7286H184.77L195.838 25.8618H214.331V30.0348H205.476V35.2257H213.377V39.3648H205.476V44.5556H214.467V48.7286H200.402V44.0467H192.603L190.253 48.7286ZM195.157 39.0255L194.748 39.8398H200.402V27.8974C199.471 30.295 197.723 34.0043 195.157 39.0255Z" fill="#162A41"/>
<path d="M238.512 46.6251C236.332 48.2083 233.585 48.9999 230.27 48.9999C226.592 48.9999 223.606 47.9482 221.313 45.8447C219.02 43.7413 217.873 40.8801 217.873 37.2612C217.873 33.6876 219.065 30.8264 221.449 28.6777C223.856 26.529 226.898 25.4546 230.576 25.4546C233.165 25.4546 235.401 25.9296 237.286 26.8795V32.1043C235.106 30.8603 232.87 30.2383 230.576 30.2383C228.419 30.2383 226.705 30.8829 225.434 32.1721C224.162 33.4388 223.527 35.1351 223.527 37.2612C223.527 39.4099 224.151 41.1176 225.4 42.3842C226.648 43.6508 228.351 44.2841 230.508 44.2841C231.485 44.2841 232.449 44.1371 233.403 43.843V39.5343H229.691V35.0899H238.512V46.6251Z" fill="#162A41"/>
<path d="M256.494 48.7286H242.769V25.8618H248.013V44.1485H256.494V48.7286Z" fill="#162A41"/>
<path d="M273.659 48.7286H259.389V25.8618H273.522V30.0348H264.668V35.2257H272.569V39.3648H264.668V44.5556H273.659V48.7286Z" fill="#162A41"/>
<path d="M285.749 30.1027H283.161V36.5488H285.647C287.917 36.5488 289.053 35.4405 289.053 33.224C289.053 32.2514 288.758 31.4937 288.167 30.9509C287.577 30.3854 286.771 30.1027 285.749 30.1027ZM283.161 48.7286H277.916V25.8618H285.851C288.417 25.8618 290.472 26.5404 292.016 27.8974C293.582 29.2545 294.366 31.0187 294.366 33.1901C294.366 36.4471 292.969 38.6975 290.177 39.9415L296 48.7286H289.734L284.762 40.7897H283.161V48.7286Z" fill="#162A41"/>
</svg>
